<?xml version="1.0" encoding="UTF-8" standalone="no"?>
<!-- Created with Inkscape (http://www.inkscape.org/) -->

<svg
   xmlns:dc="http://purl.org/dc/elements/1.1/"
   xmlns:cc="http://creativecommons.org/ns#"
   xmlns:rdf="http://www.w3.org/1999/02/22-rdf-syntax-ns#"
   xmlns:svg="http://www.w3.org/2000/svg"
   xmlns="http://www.w3.org/2000/svg"
   xmlns:sodipodi="http://sodipodi.sourceforge.net/DTD/sodipodi-0.dtd"
   xmlns:inkscape="http://www.inkscape.org/namespaces/inkscape"
   version="1.1"
   id="svg10"
   xml:space="preserve"
   width="246.59613"
   height="67.022263"
   viewBox="0 0 246.59613 67.022263"
   sodipodi:docname="logos_web.svg"
   inkscape:version="0.92.4 (5da689c313, 2019-01-14)"><metadata
     id="metadata16"><rdf:RDF><cc:Work
         rdf:about=""><dc:format>image/svg+xml</dc:format><dc:type
           rdf:resource="http://purl.org/dc/dcmitype/StillImage" /><dc:title></dc:title></cc:Work></rdf:RDF></metadata><defs
     id="defs14"><clipPath
       clipPathUnits="userSpaceOnUse"
       id="clipPath28"><path
         d="M 0,226.771 H 425.197 V 0 H 0 Z"
         id="path26"
         inkscape:connector-curvature="0" /></clipPath></defs><sodipodi:namedview
     pagecolor="#ffffff"
     bordercolor="#666666"
     borderopacity="1"
     objecttolerance="10"
     gridtolerance="10"
     guidetolerance="10"
     inkscape:pageopacity="0"
     inkscape:pageshadow="2"
     inkscape:window-width="1920"
     inkscape:window-height="986"
     id="namedview12"
     showgrid="false"
     inkscape:zoom="2.5234709"
     inkscape:cx="120.00466"
     inkscape:cy="19.163599"
     inkscape:window-x="-11"
     inkscape:window-y="-11"
     inkscape:window-maximized="1"
     inkscape:current-layer="g18"
     fit-margin-top="0"
     fit-margin-left="0"
     fit-margin-right="0"
     fit-margin-bottom="0" /><g
     id="g18"
     inkscape:groupmode="layer"
     inkscape:label="logos_web"
     transform="matrix(1.3333333,0,0,-1.3333333,-163.46,199.03933)"><path
       d="m 201.39,95.747 h 0.85 v 57.079 h -0.85 z"
       style="fill:#5d5d5d;fill-opacity:1;fill-rule:nonzero;stroke:none"
       id="path20"
       inkscape:connector-curvature="0" /><g
       id="g22"><g
         id="g24"
         clip-path="url(#clipPath28)"><g
           id="g30"
           transform="translate(125.3755,108.8891)"><path
             d="m 0,0 c -1.298,0 -2.204,0.837 -2.204,2.229 v 3.509 h 0.783 V 2.229 c 0,-1.09 0.679,-1.501 1.421,-1.501 0.735,0 1.445,0.418 1.445,1.501 V 5.738 H 2.21 V 2.229 C 2.21,0.882 1.26,0 0,0"
             style="fill:#5d5d5d;fill-opacity:1;fill-rule:nonzero;stroke:none"
             id="path32"
             inkscape:connector-curvature="0" /></g><g
           id="g34"
           transform="translate(132.9297,108.9843)"><path
             d="m 0,0 -2.962,4.088 c -0.03,0.047 -0.1,0.156 -0.1,0.156 0,0 0.015,-0.125 0.015,-0.187 V 0 h -0.772 v 5.643 h 0.658 L -0.239,1.63 c 0.045,-0.06 0.1,-0.163 0.1,-0.163 0,0 -0.015,0.116 -0.015,0.187 V 5.643 H 0.618 V 0 H 0"
             style="fill:#5d5d5d;fill-opacity:1;fill-rule:nonzero;stroke:none"
             id="path36"
             inkscape:connector-curvature="0" /></g><path
           d="m 135.112,114.627 h 0.774 v -5.643 h -0.774 z"
           style="fill:#5d5d5d;fill-opacity:1;fill-rule:nonzero;stroke:none"
           id="path38"
           inkscape:connector-curvature="0" /><g
           id="g40"
           transform="translate(139.5269,108.9843)"><path
             d="m 0,0 h -0.479 l -1.988,5.643 h 0.75 L -0.29,1.57 c 0.027,-0.073 0.049,-0.197 0.049,-0.197 0,0 0.025,0.124 0.046,0.197 L 1.243,5.643 H 1.979 L 0,0"
             style="fill:#5d5d5d;fill-opacity:1;fill-rule:nonzero;stroke:none"
             id="path42"
             inkscape:connector-curvature="0" /></g><g
           id="g44"
           transform="translate(142.6826,108.9843)"><path
             d="M 0,0 V 5.643 H 3.153 V 4.916 H 0.771 V 3.114 H 3.098 V 2.388 H 0.771 V 0.727 H 3.299 V 0 Z"
             style="fill:#5d5d5d;fill-opacity:1;fill-rule:nonzero;stroke:none"
             id="path46"
             inkscape:connector-curvature="0" /></g><g
           id="g48"
           transform="translate(150.4121,108.9843)"><path
             d="M 0,0 -2.282,2.635 V 0 h -0.77 v 5.643 h 1.825 c 1.05,0 1.747,-0.748 1.747,-1.662 0,-0.904 -0.767,-1.616 -1.609,-1.616 L 0.99,0 Z M -1.366,4.916 H -2.282 V 2.974 h 0.899 c 0.697,0 1.1,0.434 1.1,1.039 0,0.383 -0.348,0.903 -1.083,0.903"
             style="fill:#5d5d5d;fill-opacity:1;fill-rule:nonzero;stroke:none"
             id="path50"
             inkscape:connector-curvature="0" /></g><g
           id="g52"
           transform="translate(153.9014,108.8891)"><path
             d="m 0,0 c -0.572,0 -1.138,0.149 -1.656,0.572 l 0.443,0.598 c 0.302,-0.271 0.788,-0.418 1.175,-0.418 0.572,0 0.966,0.256 0.966,0.787 0,0.48 -0.441,0.743 -0.943,1.001 -0.807,0.408 -1.626,0.762 -1.626,1.838 0,0.834 0.618,1.455 1.632,1.455 0.566,0 1.084,-0.172 1.525,-0.481 L 1.097,4.716 c -0.35,0.257 -0.643,0.359 -1.112,0.359 -0.443,0 -0.813,-0.223 -0.813,-0.651 0,-0.61 0.541,-0.819 1.237,-1.168 C 1.052,2.941 1.731,2.53 1.731,1.585 1.731,0.572 0.943,0 0,0"
             style="fill:#5d5d5d;fill-opacity:1;fill-rule:nonzero;stroke:none"
             id="path54"
             inkscape:connector-curvature="0" /></g><path
           d="m 156.901,114.627 h 0.773 v -5.643 h -0.773 z"
           style="fill:#5d5d5d;fill-opacity:1;fill-rule:nonzero;stroke:none"
           id="path56"
           inkscape:connector-curvature="0" /><g
           id="g58"
           transform="translate(160.8755,113.8999)"><path
             d="M 0,0 V -4.916 H -0.772 V 0 H -1.925 V 0.728 H 1.198 V 0 Z"
             style="fill:#5d5d5d;fill-opacity:1;fill-rule:nonzero;stroke:none"
             id="path60"
             inkscape:connector-curvature="0" /></g><g
           id="g62"
           transform="translate(163.3511,108.9843)"><path
             d="M 0,0 V 5.643 H 3.154 V 4.916 H 0.771 V 3.114 H 3.099 V 2.388 H 0.771 V 0.727 H 3.302 V 0 Z M 1.824,6.091 H 1.082 l 0.72,1.138 h 0.741 z"
             style="fill:#5d5d5d;fill-opacity:1;fill-rule:nonzero;stroke:none"
             id="path64"
             inkscape:connector-curvature="0" /></g><g
           id="g66"
           transform="translate(172.5225,108.9843)"><path
             d="M 0,0 H -1.369 V 5.643 H 0.067 C 1.995,5.643 3.083,4.375 3.083,2.836 3.083,1.268 1.932,0 0,0 M 0.053,4.946 H -0.596 V 0.694 h 0.503 c 1.67,0 2.373,1.084 2.373,2.135 0,1.152 -0.873,2.117 -2.227,2.117"
             style="fill:#5d5d5d;fill-opacity:1;fill-rule:nonzero;stroke:none"
             id="path68"
             inkscape:connector-curvature="0" /></g><g
           id="g70"
           transform="translate(179.1016,108.8891)"><path
             d="m 0,0 c -1.297,0 -2.202,0.837 -2.202,2.229 v 3.509 h 0.779 V 2.229 c 0,-1.09 0.681,-1.501 1.423,-1.501 0.737,0 1.445,0.418 1.445,1.501 V 5.738 H 2.212 V 2.229 C 2.212,0.882 1.261,0 0,0"
             style="fill:#5d5d5d;fill-opacity:1;fill-rule:nonzero;stroke:none"
             id="path72"
             inkscape:connector-curvature="0" /></g><path
           d="m 122.595,118.395 h 59.301 v 0.812 h -59.301 z"
           style="fill:#5d5d5d;fill-opacity:1;fill-rule:nonzero;stroke:none"
           id="path74"
           inkscape:connector-curvature="0" /><g
           id="g76"
           transform="translate(123.1978,99.1723)"><path
             d="M 0,0 V 5.645 H 0.774 V 0.727 H 2.916 V 0 Z"
             style="fill:#5d5d5d;fill-opacity:1;fill-rule:nonzero;stroke:none"
             id="path78"
             inkscape:connector-curvature="0" /></g><g
           id="g80"
           transform="translate(129.7808,99.081)"><path
             d="m 0,0 c -1.301,0 -2.206,0.831 -2.206,2.226 v 3.51 h 0.782 v -3.51 c 0,-1.092 0.679,-1.502 1.424,-1.502 0.733,0 1.444,0.417 1.444,1.502 v 3.51 H 2.209 V 2.226 C 2.209,0.879 1.258,0 0,0"
             style="fill:#5d5d5d;fill-opacity:1;fill-rule:nonzero;stroke:none"
             id="path82"
             inkscape:connector-curvature="0" /></g><g
           id="g84"
           transform="translate(137.3965,99.1723)"><path
             d="m 0,0 -1.26,1.926 c -0.092,0.138 -0.242,0.393 -0.242,0.393 0,0 -0.145,-0.247 -0.255,-0.409 L -3.008,0 h -0.897 l 1.957,2.978 -1.732,2.667 h 0.95 L -1.647,3.974 C -1.562,3.842 -1.47,3.68 -1.47,3.68 c 0,0 0.084,0.162 0.186,0.311 l 1.091,1.654 H 0.692 L -1.029,3.017 0.934,0 H 0"
             style="fill:#5d5d5d;fill-opacity:1;fill-rule:nonzero;stroke:none"
             id="path86"
             inkscape:connector-curvature="0" /></g><g
           id="g88"
           transform="translate(139.854,99.1723)"><path
             d="M 0,0 V 5.645 H 3.155 V 4.918 H 0.773 v -1.8 H 3.102 V 2.388 H 0.773 V 0.727 H 3.302 V 0 Z"
             style="fill:#5d5d5d;fill-opacity:1;fill-rule:nonzero;stroke:none"
             id="path90"
             inkscape:connector-curvature="0" /></g><g
           id="g92"
           transform="translate(149.8745,99.1723)"><path
             d="m 0,0 v 4.152 c 0,0.102 0.017,0.219 0.017,0.219 0,0 -0.049,-0.093 -0.079,-0.136 L -1.833,1.847 h -0.31 l -1.783,2.328 c -0.032,0.039 -0.077,0.122 -0.077,0.122 0,0 0.015,-0.108 0.015,-0.208 V 0 h -0.774 v 5.645 h 0.658 L -1.978,2.883 0.086,5.645 H 0.774 V 0 H 0"
             style="fill:#5d5d5d;fill-opacity:1;fill-rule:nonzero;stroke:none"
             id="path94"
             inkscape:connector-curvature="0" /></g><g
           id="g96"
           transform="translate(154.4858,99.1723)"><path
             d="m 0,0 h -1.695 v 5.645 h 1.492 c 0.961,0 1.64,-0.59 1.64,-1.47 C 1.437,3.525 1.15,3.11 0.79,2.877 1.227,2.745 1.737,2.225 1.737,1.531 1.737,0.828 1.244,0 0,0 M -0.333,4.918 H -0.921 V 3.13 h 0.519 c 0.841,0 1.034,0.51 1.034,0.984 0,0.502 -0.333,0.804 -0.965,0.804 M -0.01,2.404 H -0.921 V 0.727 h 0.835 c 0.696,0 1.019,0.341 1.019,0.865 0,0.488 -0.371,0.812 -0.943,0.812"
             style="fill:#5d5d5d;fill-opacity:1;fill-rule:nonzero;stroke:none"
             id="path98"
             inkscape:connector-curvature="0" /></g><g
           id="g100"
           transform="translate(160.4224,99.081)"><path
             d="m 0,0 c -1.615,0 -2.899,1.23 -2.899,2.927 0,1.648 1.23,2.9 2.859,2.9 1.751,0 2.925,-1.276 2.925,-2.912 C 2.885,1.273 1.595,0 0,0 m -0.031,5.071 c -1.222,0 -2.063,-0.906 -2.063,-2.144 0,-1.252 0.981,-2.173 2.094,-2.173 1.107,0 2.082,0.838 2.082,2.189 0,1.222 -0.866,2.128 -2.113,2.128"
             style="fill:#5d5d5d;fill-opacity:1;fill-rule:nonzero;stroke:none"
             id="path102"
             inkscape:connector-curvature="0" /></g><g
           id="g104"
           transform="translate(167.0332,99.081)"><path
             d="m 0,0 c -1.298,0 -2.201,0.831 -2.201,2.226 v 3.51 h 0.779 v -3.51 c 0,-1.092 0.68,-1.502 1.422,-1.502 0.737,0 1.449,0.417 1.449,1.502 v 3.51 H 2.214 V 2.226 C 2.214,0.879 1.262,0 0,0"
             style="fill:#5d5d5d;fill-opacity:1;fill-rule:nonzero;stroke:none"
             id="path106"
             inkscape:connector-curvature="0" /></g><g
           id="g108"
           transform="translate(174.0562,99.1723)"><path
             d="M 0,0 -2.279,2.636 V 0 h -0.775 v 5.645 h 1.826 c 1.051,0 1.746,-0.752 1.746,-1.664 0,-0.905 -0.765,-1.615 -1.609,-1.615 L 0.991,0 Z m -1.369,4.918 h -0.91 v -1.94 h 0.896 c 0.696,0 1.098,0.429 1.098,1.032 0,0.389 -0.35,0.908 -1.084,0.908"
             style="fill:#5d5d5d;fill-opacity:1;fill-rule:nonzero;stroke:none"
             id="path110"
             inkscape:connector-curvature="0" /></g><g
           id="g112"
           transform="translate(178.8252,99.081)"><path
             d="m 0,0 c -1.428,0 -2.858,1.166 -2.858,2.915 0,1.747 1.315,2.912 2.868,2.912 0.913,0 1.539,-0.294 2.08,-0.764 L 1.62,4.491 c -0.49,0.401 -0.967,0.58 -1.623,0.58 -1.138,0 -2.051,-0.857 -2.051,-2.166 0,-1.144 0.935,-2.151 2.081,-2.151 0.811,0 1.46,0.459 1.66,1.14 H -0.014 V 2.619 H 2.585 C 2.585,1.086 1.362,0 0,0"
             style="fill:#5d5d5d;fill-opacity:1;fill-rule:nonzero;stroke:none"
             id="path114"
             inkscape:connector-curvature="0" /></g><g
           id="g116"
           transform="translate(166.4058,148.0835)"><path
             d="M 0,0 C -0.832,0 -1.561,0.473 -1.921,1.196 H -2.167 V -22.96 c 0,-1.191 0.964,-2.157 2.165,-2.157 1.19,0 2.156,0.966 2.156,2.157 V 1.196 H 1.912 C 1.551,0.473 0.832,0 0,0"
             style="fill:#00aadc;fill-opacity:1;fill-rule:nonzero;stroke:none"
             id="path118"
             inkscape:connector-curvature="0" /></g><g
           id="g120"
           transform="translate(150.8745,142.7461)"><path
             d="m 0,0 c -0.832,0 -1.552,0.468 -1.911,1.194 h -0.246 v -18.817 c 0,-1.19 0.966,-2.156 2.157,-2.156 1.188,0 2.154,0.966 2.154,2.156 V 1.194 H 1.913 C 1.552,0.468 0.83,0 0,0"
             style="fill:#ee2524;fill-opacity:1;fill-rule:nonzero;stroke:none"
             id="path122"
             inkscape:connector-curvature="0" /></g><g
           id="g124"
           transform="translate(148.7144,147.0859)"><path
             d="M 0,0 C 0,1.194 0.969,2.161 2.163,2.161 3.358,2.161 4.325,1.194 4.325,0 4.325,-1.194 3.358,-2.162 2.163,-2.162 0.969,-2.162 0,-1.194 0,0"
             style="fill:#ee2524;fill-opacity:1;fill-rule:nonzero;stroke:none"
             id="path126"
             inkscape:connector-curvature="0" /></g><g
           id="g128"
           transform="translate(125.333,122.9668)"><path
             d="m 0,0 v 0 c -1.189,0 -2.155,0.962 -2.155,2.157 v 16.662 c 0,1.191 0.966,2.155 2.155,2.155 1.194,0 2.161,-0.964 2.161,-2.155 V 0 H 0"
             style="fill:#ee2524;fill-opacity:1;fill-rule:nonzero;stroke:none"
             id="path130"
             inkscape:connector-curvature="0" /></g><g
           id="g132"
           transform="translate(128.6567,122.9668)"><path
             d="m 0,0 v 0 18.819 c 0,1.191 0.967,2.155 2.156,2.155 1.193,0 2.157,-0.964 2.157,-2.155 L 4.313,0 H 4.319 C 3.296,0 3.06,1.183 3.06,2.337 H 3.063 C 3.063,1.147 2.098,0 0.905,0 h -0.9"
             style="fill:#ee2524;fill-opacity:1;fill-rule:nonzero;stroke:none"
             id="path134"
             inkscape:connector-curvature="0" /></g><g
           id="g136"
           transform="translate(143.5957,143.9433)"><path
             d="m 0,0 v 0 c 1.188,0 2.157,-0.967 2.157,-2.161 v -16.661 c 0,-1.191 -0.969,-2.155 -2.157,-2.155 -1.191,0 -2.158,0.964 -2.158,2.155 V 0 H 0"
             style="fill:#ee2524;fill-opacity:1;fill-rule:nonzero;stroke:none"
             id="path138"
             inkscape:connector-curvature="0" /></g><g
           id="g140"
           transform="translate(140.27,143.9433)"><path
             d="m 0,0 h 0.004 v -18.822 c 0,-1.191 -0.966,-2.155 -2.156,-2.155 -1.191,0 -2.16,0.964 -2.16,2.155 V 0 h -0.002 c 1.02,-0.003 1.257,-1.187 1.257,-2.342 H -3.06 C -3.06,-1.151 -2.093,0 -0.902,0 H 0"
             style="fill:#ee2524;fill-opacity:1;fill-rule:nonzero;stroke:none"
             id="path142"
             inkscape:connector-curvature="0" /></g><g
           id="g144"
           transform="translate(173.6968,122.9668)"><path
             d="m 0,0 v 0 c -1.19,0 -2.156,0.964 -2.156,2.157 v 16.662 c 0,1.191 0.966,2.158 2.156,2.158 1.192,0 2.158,-0.967 2.158,-2.158 V 0 H 0"
             style="fill:#00aadc;fill-opacity:1;fill-rule:nonzero;stroke:none"
             id="path146"
             inkscape:connector-curvature="0" /></g><g
           id="g148"
           transform="translate(177.0244,122.9668)"><path
             d="m 0,0 h -0.003 v 18.819 c 0,1.191 0.962,2.158 2.157,2.158 1.19,0 2.156,-0.967 2.156,-2.158 L 4.31,0 H 4.313 C 3.294,0 3.056,1.186 3.056,2.339 H 3.059 C 3.059,1.149 2.093,0 0.901,0 H 0"
             style="fill:#00aadc;fill-opacity:1;fill-rule:nonzero;stroke:none"
             id="path150"
             inkscape:connector-curvature="0" /></g><g
           id="g152"
           transform="translate(156.4888,125.1259)"><path
             d="M 0,0 C 0,1.197 0.967,2.165 2.164,2.165 3.356,2.165 4.325,1.197 4.325,0 4.325,-1.193 3.356,-2.159 2.164,-2.159 0.967,-2.159 0,-1.193 0,0"
             style="fill:#00aadc;fill-opacity:1;fill-rule:nonzero;stroke:none"
             id="path154"
             inkscape:connector-curvature="0" /></g><g
           id="g156"
           transform="translate(221.27,105.643)"><path
             d="M 0,0 V 3.465 H 0.471 V 0.451 H 1.772 V 0 Z"
             style="fill:#0897c5;fill-opacity:1;fill-rule:nonzero;stroke:none"
             id="path158"
             inkscape:connector-curvature="0" /></g><g
           id="g160"
           transform="translate(226.0776,106.3906)"><path
             d="M 0,0 C -0.068,-0.169 -0.162,-0.313 -0.281,-0.432 -0.4,-0.551 -0.543,-0.643 -0.707,-0.708 -0.871,-0.772 -1.049,-0.805 -1.24,-0.805 c -0.197,0 -0.379,0.032 -0.543,0.093 -0.164,0.062 -0.306,0.152 -0.423,0.271 -0.117,0.118 -0.209,0.261 -0.275,0.429 -0.066,0.168 -0.099,0.359 -0.099,0.574 v 2.156 h 0.475 V 0.566 c 0,-0.168 0.023,-0.31 0.071,-0.427 0.047,-0.117 0.11,-0.211 0.189,-0.284 0.08,-0.073 0.173,-0.126 0.278,-0.159 0.105,-0.033 0.213,-0.05 0.327,-0.05 0.112,0 0.221,0.017 0.326,0.05 0.105,0.033 0.198,0.087 0.28,0.161 0.081,0.075 0.147,0.169 0.197,0.285 0.05,0.115 0.076,0.256 0.076,0.424 V 2.718 H 0.104 V 0.562 C 0.104,0.357 0.069,0.169 0,0"
             style="fill:#0897c5;fill-opacity:1;fill-rule:nonzero;stroke:none"
             id="path162"
             inkscape:connector-curvature="0" /></g><g
           id="g164"
           transform="translate(229.0337,105.643)"><path
             d="M 0,0 -0.766,1.182 C -0.784,1.21 -0.806,1.245 -0.829,1.284 -0.853,1.324 -0.871,1.356 -0.886,1.381 -0.899,1.407 -0.908,1.421 -0.911,1.424 -0.915,1.421 -0.923,1.407 -0.937,1.381 -0.951,1.356 -0.971,1.323 -0.996,1.282 -1.021,1.241 -1.045,1.204 -1.066,1.172 L -1.828,0 h -0.545 l 1.189,1.828 -1.052,1.637 h 0.578 L -1.001,2.44 c 0.025,-0.041 0.062,-0.102 0.108,-0.18 0.044,0.082 0.081,0.145 0.113,0.19 l 0.663,1.015 h 0.54 L -0.625,1.851 0.569,0 Z"
             style="fill:#0897c5;fill-opacity:1;fill-rule:nonzero;stroke:none"
             id="path166"
             inkscape:connector-curvature="0" /></g><g
           id="g168"
           transform="translate(230.0962,105.643)"><path
             d="M 0,0 V 3.465 H 1.917 V 3.014 H 0.47 V 1.918 H 1.885 V 1.467 H 0.47 V 0.451 H 2.007 V 0 Z"
             style="fill:#0897c5;fill-opacity:1;fill-rule:nonzero;stroke:none"
             id="path170"
             inkscape:connector-curvature="0" /></g><g
           id="g172"
           transform="translate(235.5903,105.643)"><path
             d="M 0,0 V 2.549 C 0,2.581 0.003,2.625 0.009,2.682 -0.013,2.641 -0.028,2.614 -0.038,2.602 L -1.114,1.134 H -1.302 L -2.388,2.563 C -2.397,2.576 -2.413,2.602 -2.435,2.639 -2.429,2.585 -2.426,2.543 -2.426,2.511 V 0 h -0.47 v 3.465 h 0.4 L -1.203,1.771 0.052,3.465 H 0.47 V 0 Z"
             style="fill:#0897c5;fill-opacity:1;fill-rule:nonzero;stroke:none"
             id="path174"
             inkscape:connector-curvature="0" /></g><g
           id="g176"
           transform="translate(238.2075,106.9848)"><path
             d="m 0,0 c -0.104,0.089 -0.242,0.135 -0.418,0.135 h -0.555 v -1.026 h 0.508 c 0.213,0 0.369,0.048 0.47,0.144 0.1,0.096 0.15,0.225 0.15,0.385 C 0.155,-0.21 0.104,-0.09 0,0 M -0.176,1.543 C -0.274,1.629 -0.421,1.672 -0.615,1.672 H -0.973 V 0.585 h 0.316 c 0.128,0 0.232,0.019 0.314,0.055 0.081,0.036 0.146,0.082 0.193,0.138 0.046,0.057 0.079,0.12 0.096,0.191 0.017,0.071 0.026,0.142 0.026,0.214 0,0.154 -0.049,0.274 -0.148,0.36 M 0.585,-0.731 C 0.546,-0.843 0.484,-0.945 0.399,-1.035 0.315,-1.125 0.205,-1.199 0.07,-1.256 -0.064,-1.313 -0.226,-1.342 -0.413,-1.342 h -1.029 v 3.466 h 0.907 c 0.143,0 0.277,-0.022 0.399,-0.064 C -0.014,2.017 0.092,1.956 0.181,1.877 0.271,1.798 0.34,1.704 0.388,1.593 0.437,1.482 0.461,1.359 0.461,1.223 0.461,1.024 0.422,0.86 0.346,0.73 0.269,0.601 0.176,0.5 0.066,0.427 0.132,0.408 0.199,0.374 0.269,0.325 0.337,0.276 0.399,0.216 0.456,0.145 0.513,0.073 0.558,-0.009 0.593,-0.101 0.627,-0.193 0.645,-0.292 0.645,-0.4 c 0,-0.108 -0.02,-0.218 -0.06,-0.331"
             style="fill:#0897c5;fill-opacity:1;fill-rule:nonzero;stroke:none"
             id="path178"
             inkscape:connector-curvature="0" /></g><g
           id="g180"
           transform="translate(242.188,107.9145)"><path
             d="m 0,0 c -0.062,0.16 -0.15,0.297 -0.263,0.413 -0.113,0.116 -0.249,0.207 -0.407,0.273 -0.157,0.066 -0.331,0.1 -0.518,0.1 -0.186,0 -0.356,-0.034 -0.51,-0.1 C -1.854,0.62 -1.986,0.529 -2.096,0.413 -2.205,0.297 -2.291,0.159 -2.352,-0.002 c -0.061,-0.162 -0.091,-0.337 -0.091,-0.527 0,-0.193 0.034,-0.371 0.103,-0.534 0.069,-0.164 0.162,-0.304 0.279,-0.423 0.118,-0.118 0.253,-0.211 0.407,-0.278 0.153,-0.066 0.315,-0.099 0.484,-0.099 0.169,0 0.33,0.03 0.482,0.092 0.152,0.062 0.286,0.151 0.402,0.269 0.115,0.117 0.208,0.257 0.277,0.422 0.069,0.164 0.103,0.351 0.103,0.56 C 0.094,-0.333 0.063,-0.16 0,0 M 0.444,-1.244 C 0.353,-1.46 0.227,-1.649 0.068,-1.811 -0.09,-1.973 -0.275,-2.099 -0.488,-2.191 -0.701,-2.283 -0.929,-2.329 -1.17,-2.329 c -0.244,0 -0.474,0.046 -0.688,0.136 -0.215,0.09 -0.403,0.214 -0.562,0.372 -0.16,0.159 -0.285,0.348 -0.376,0.568 -0.091,0.22 -0.137,0.461 -0.137,0.724 0,0.253 0.044,0.488 0.132,0.705 0.088,0.217 0.209,0.405 0.364,0.565 0.156,0.159 0.339,0.284 0.553,0.375 0.213,0.09 0.443,0.135 0.691,0.135 0.266,0 0.507,-0.046 0.726,-0.138 C -0.25,1.021 -0.063,0.895 0.092,0.733 0.247,0.572 0.367,0.382 0.454,0.164 0.54,-0.055 0.583,-0.289 0.583,-0.539 c 0,-0.253 -0.046,-0.488 -0.139,-0.705"
             style="fill:#0897c5;fill-opacity:1;fill-rule:nonzero;stroke:none"
             id="path182"
             inkscape:connector-curvature="0" /></g><g
           id="g184"
           transform="translate(245.8911,106.3906)"><path
             d="M 0,0 C -0.068,-0.169 -0.162,-0.313 -0.281,-0.432 -0.4,-0.551 -0.542,-0.643 -0.707,-0.708 -0.871,-0.772 -1.049,-0.805 -1.24,-0.805 c -0.197,0 -0.378,0.032 -0.543,0.093 -0.164,0.062 -0.306,0.152 -0.423,0.271 -0.117,0.118 -0.209,0.261 -0.274,0.429 -0.067,0.168 -0.099,0.359 -0.099,0.574 v 2.156 h 0.475 V 0.566 c 0,-0.168 0.023,-0.31 0.07,-0.427 0.047,-0.117 0.11,-0.211 0.19,-0.284 0.079,-0.073 0.172,-0.126 0.278,-0.159 0.104,-0.033 0.213,-0.05 0.326,-0.05 0.113,0 0.221,0.017 0.327,0.05 0.104,0.033 0.197,0.087 0.279,0.161 0.081,0.075 0.148,0.169 0.197,0.285 0.05,0.115 0.076,0.256 0.076,0.424 V 2.718 H 0.104 V 0.562 C 0.104,0.357 0.069,0.169 0,0"
             style="fill:#0897c5;fill-opacity:1;fill-rule:nonzero;stroke:none"
             id="path186"
             inkscape:connector-curvature="0" /></g><g
           id="g188"
           transform="translate(248.3188,108.291)"><path
             d="M 0,0 C -0.026,0.065 -0.067,0.124 -0.122,0.177 -0.177,0.231 -0.245,0.276 -0.326,0.312 -0.408,0.348 -0.505,0.366 -0.618,0.366 H -1.172 V -0.82 h 0.545 c 0.213,0 0.377,0.059 0.493,0.177 0.116,0.118 0.174,0.27 0.174,0.456 C 0.04,-0.127 0.026,-0.065 0,0 m 0.214,-2.648 -1.386,1.619 v -1.619 h -0.471 v 3.465 h 1.11 c 0.159,0 0.304,-0.026 0.434,-0.08 C 0.031,0.683 0.144,0.609 0.237,0.516 0.331,0.422 0.403,0.314 0.453,0.191 0.504,0.067 0.529,-0.064 0.529,-0.203 0.529,-0.342 0.502,-0.472 0.449,-0.592 0.396,-0.713 0.323,-0.818 0.232,-0.908 0.142,-0.999 0.038,-1.069 -0.08,-1.12 -0.197,-1.17 -0.32,-1.195 -0.448,-1.195 l 1.263,-1.453 z"
             style="fill:#0897c5;fill-opacity:1;fill-rule:nonzero;stroke:none"
             id="path190"
             inkscape:connector-curvature="0" /></g><g
           id="g192"
           transform="translate(252.5815,106.5503)"><path
             d="m 0,0 c -0.086,-0.199 -0.201,-0.369 -0.346,-0.512 -0.143,-0.143 -0.31,-0.254 -0.5,-0.333 -0.189,-0.079 -0.387,-0.119 -0.594,-0.119 -0.216,0 -0.429,0.043 -0.637,0.128 -0.209,0.086 -0.395,0.207 -0.557,0.363 -0.163,0.157 -0.295,0.345 -0.395,0.565 -0.1,0.22 -0.151,0.465 -0.151,0.734 0,0.268 0.047,0.513 0.139,0.733 0.093,0.22 0.219,0.408 0.379,0.565 0.159,0.156 0.346,0.277 0.557,0.363 0.211,0.085 0.434,0.128 0.669,0.128 0.279,0 0.518,-0.042 0.717,-0.126 0.198,-0.084 0.381,-0.198 0.547,-0.344 L -0.458,1.794 C -0.608,1.917 -0.761,2.007 -0.914,2.064 -1.067,2.122 -1.245,2.15 -1.445,2.15 -1.617,2.15 -1.779,2.118 -1.932,2.055 -2.084,1.992 -2.216,1.902 -2.329,1.787 -2.441,1.671 -2.53,1.531 -2.594,1.367 -2.658,1.202 -2.69,1.02 -2.69,0.821 c 0,-0.177 0.033,-0.345 0.098,-0.504 0.066,-0.158 0.156,-0.298 0.273,-0.42 0.116,-0.122 0.25,-0.218 0.401,-0.289 0.152,-0.071 0.316,-0.107 0.492,-0.107 0.122,0 0.238,0.017 0.348,0.05 0.109,0.033 0.208,0.081 0.296,0.142 0.087,0.062 0.162,0.136 0.225,0.221 0.063,0.086 0.11,0.18 0.141,0.285 H -1.45 V 0.65 H 0.129 C 0.129,0.415 0.086,0.198 0,0"
             style="fill:#0897c5;fill-opacity:1;fill-rule:nonzero;stroke:none"
             id="path194"
             inkscape:connector-curvature="0" /></g><g
           id="g196"
           transform="translate(256.9849,105.7715)"><path
             d="m 0,0 c -0.233,-0.124 -0.502,-0.186 -0.806,-0.186 -0.21,0 -0.415,0.042 -0.615,0.126 -0.201,0.084 -0.381,0.203 -0.539,0.356 -0.158,0.154 -0.286,0.341 -0.383,0.563 -0.096,0.222 -0.145,0.47 -0.145,0.745 0,0.25 0.042,0.484 0.127,0.703 0.084,0.218 0.202,0.408 0.352,0.569 0.151,0.162 0.329,0.289 0.538,0.38 0.208,0.092 0.437,0.138 0.684,0.138 0.31,0 0.564,-0.049 0.764,-0.147 C 0.176,3.148 0.344,3.018 0.481,2.853 L 0.135,2.54 C 0.016,2.663 -0.119,2.759 -0.271,2.827 -0.421,2.895 -0.59,2.929 -0.778,2.929 -0.944,2.929 -1.101,2.897 -1.25,2.833 -1.399,2.771 -1.529,2.682 -1.641,2.568 -1.751,2.454 -1.839,2.316 -1.903,2.155 -1.968,1.994 -2,1.813 -2,1.614 -2,1.389 -1.962,1.194 -1.887,1.027 -1.812,0.861 -1.715,0.723 -1.598,0.612 -1.48,0.501 -1.351,0.418 -1.208,0.363 -1.065,0.308 -0.929,0.28 -0.797,0.28 c 0.167,0 0.339,0.036 0.518,0.109 0.178,0.073 0.341,0.196 0.488,0.37 L 0.548,0.465 C 0.416,0.278 0.233,0.123 0,0"
             style="fill:#0897c5;fill-opacity:1;fill-rule:nonzero;stroke:none"
             id="path198"
             inkscape:connector-curvature="0" /></g><g
           id="g200"
           transform="translate(258.0688,105.643)"><path
             d="M 0,0 V 3.465 H 1.917 V 3.014 H 0.47 V 1.918 H 1.884 V 1.467 H 0.47 V 0.451 H 2.007 V 0 Z"
             style="fill:#0897c5;fill-opacity:1;fill-rule:nonzero;stroke:none"
             id="path202"
             inkscape:connector-curvature="0" /></g><g
           id="g204"
           transform="translate(262.9888,105.643)"><path
             d="M 0,0 -1.8,2.511 C -1.81,2.527 -1.829,2.559 -1.86,2.606 -1.854,2.549 -1.852,2.511 -1.852,2.492 V 0 h -0.469 v 3.465 h 0.399 l 1.776,-2.464 c 0.016,-0.019 0.037,-0.052 0.062,-0.099 -0.007,0.054 -0.01,0.092 -0.01,0.114 v 2.449 h 0.47 L 0.376,0 Z"
             style="fill:#0897c5;fill-opacity:1;fill-rule:nonzero;stroke:none"
             id="path206"
             inkscape:connector-curvature="0" /></g><g
           id="g208"
           transform="translate(265.0659,108.6572)"><path
             d="M 0,0 V -3.014 H -0.47 V 0 h -0.7 V 0.451 H 0.729 V 0 Z"
             style="fill:#0897c5;fill-opacity:1;fill-rule:nonzero;stroke:none"
             id="path210"
             inkscape:connector-curvature="0" /></g><g
           id="g212"
           transform="translate(267.9683,108.291)"><path
             d="M 0,0 C -0.026,0.065 -0.067,0.124 -0.122,0.177 -0.178,0.231 -0.245,0.276 -0.326,0.312 -0.408,0.348 -0.505,0.366 -0.618,0.366 H -1.173 V -0.82 h 0.546 c 0.212,0 0.377,0.059 0.493,0.177 0.115,0.118 0.173,0.27 0.173,0.456 C 0.039,-0.127 0.026,-0.065 0,0 m 0.214,-2.648 -1.387,1.619 v -1.619 h -0.47 v 3.465 h 1.11 c 0.16,0 0.304,-0.026 0.434,-0.08 C 0.031,0.683 0.143,0.609 0.237,0.516 0.331,0.422 0.403,0.314 0.453,0.191 0.504,0.067 0.528,-0.064 0.528,-0.203 0.528,-0.342 0.502,-0.472 0.449,-0.592 0.396,-0.713 0.323,-0.818 0.232,-0.908 0.142,-0.999 0.037,-1.069 -0.08,-1.12 -0.197,-1.17 -0.32,-1.195 -0.449,-1.195 l 1.264,-1.453 z"
             style="fill:#0897c5;fill-opacity:1;fill-rule:nonzero;stroke:none"
             id="path214"
             inkscape:connector-curvature="0" /></g><g
           id="g216"
           transform="translate(269.1929,105.643)"><path
             d="M 0,0 V 3.465 H 1.917 V 3.014 H 0.47 V 1.918 H 1.884 V 1.467 H 0.47 V 0.451 H 2.007 V 0 Z"
             style="fill:#0897c5;fill-opacity:1;fill-rule:nonzero;stroke:none"
             id="path218"
             inkscape:connector-curvature="0" /></g><g
           id="g220"
           transform="translate(273.6714,108.6572)"><path
             d="M 0,0 V -1.096 H 1.151 V -1.547 H 0 V -3.014 H -0.47 V 0.451 H 1.222 V 0 Z"
             style="fill:#0897c5;fill-opacity:1;fill-rule:nonzero;stroke:none"
             id="path222"
             inkscape:connector-curvature="0" /></g><g
           id="g224"
           transform="translate(278.2202,107.9145)"><path
             d="m 0,0 c -0.062,0.16 -0.15,0.297 -0.263,0.413 -0.113,0.116 -0.249,0.207 -0.407,0.273 -0.158,0.066 -0.331,0.1 -0.518,0.1 -0.186,0 -0.356,-0.034 -0.511,-0.1 C -1.854,0.62 -1.986,0.529 -2.096,0.413 -2.206,0.297 -2.291,0.159 -2.353,-0.002 c -0.06,-0.162 -0.09,-0.337 -0.09,-0.527 0,-0.193 0.034,-0.371 0.103,-0.534 0.069,-0.164 0.162,-0.304 0.279,-0.423 0.118,-0.118 0.253,-0.211 0.407,-0.278 0.153,-0.066 0.315,-0.099 0.484,-0.099 0.169,0 0.33,0.03 0.482,0.092 0.152,0.062 0.286,0.151 0.401,0.269 0.116,0.117 0.209,0.257 0.278,0.422 0.069,0.164 0.103,0.351 0.103,0.56 C 0.094,-0.333 0.062,-0.16 0,0 M 0.444,-1.244 C 0.352,-1.46 0.227,-1.649 0.068,-1.811 -0.09,-1.973 -0.276,-2.099 -0.488,-2.191 -0.702,-2.283 -0.929,-2.329 -1.17,-2.329 c -0.244,0 -0.474,0.046 -0.688,0.136 -0.215,0.09 -0.402,0.214 -0.562,0.372 -0.16,0.159 -0.285,0.348 -0.377,0.568 -0.09,0.22 -0.136,0.461 -0.136,0.724 0,0.253 0.044,0.488 0.132,0.705 0.088,0.217 0.209,0.405 0.364,0.565 0.156,0.159 0.339,0.284 0.553,0.375 0.212,0.09 0.443,0.135 0.69,0.135 0.267,0 0.508,-0.046 0.726,-0.138 0.218,-0.092 0.405,-0.218 0.56,-0.38 0.155,-0.161 0.275,-0.351 0.362,-0.569 0.086,-0.219 0.129,-0.453 0.129,-0.703 0,-0.253 -0.047,-0.488 -0.139,-0.705"
             style="fill:#0897c5;fill-opacity:1;fill-rule:nonzero;stroke:none"
             id="path226"
             inkscape:connector-curvature="0" /></g><g
           id="g228"
           transform="translate(281.0093,108.291)"><path
             d="M 0,0 C -0.026,0.065 -0.067,0.124 -0.122,0.177 -0.177,0.231 -0.245,0.276 -0.326,0.312 -0.407,0.348 -0.505,0.366 -0.618,0.366 H -1.172 V -0.82 h 0.545 c 0.213,0 0.378,0.059 0.493,0.177 0.116,0.118 0.174,0.27 0.174,0.456 C 0.04,-0.127 0.026,-0.065 0,0 m 0.214,-2.648 -1.386,1.619 v -1.619 h -0.471 v 3.465 h 1.11 c 0.16,0 0.304,-0.026 0.435,-0.08 C 0.031,0.683 0.144,0.609 0.238,0.516 0.332,0.422 0.404,0.314 0.454,0.191 0.504,0.067 0.529,-0.064 0.529,-0.203 0.529,-0.342 0.503,-0.472 0.449,-0.592 0.396,-0.713 0.324,-0.818 0.232,-0.908 0.143,-0.999 0.038,-1.069 -0.079,-1.12 -0.197,-1.17 -0.32,-1.195 -0.448,-1.195 l 1.263,-1.453 z"
             style="fill:#0897c5;fill-opacity:1;fill-rule:nonzero;stroke:none"
             id="path230"
             inkscape:connector-curvature="0" /></g><g
           id="g232"
           transform="translate(223.6177,99.1982)"><path
             d="m 0,0 c -0.233,-0.124 -0.502,-0.185 -0.806,-0.185 -0.21,0 -0.415,0.042 -0.616,0.126 -0.2,0.083 -0.38,0.202 -0.538,0.356 -0.158,0.153 -0.286,0.341 -0.383,0.562 -0.097,0.222 -0.145,0.47 -0.145,0.745 0,0.25 0.042,0.485 0.127,0.703 0.084,0.218 0.202,0.408 0.352,0.57 0.151,0.161 0.329,0.288 0.538,0.379 0.208,0.093 0.436,0.138 0.684,0.138 0.31,0 0.564,-0.049 0.764,-0.147 C 0.176,3.149 0.344,3.018 0.481,2.853 L 0.134,2.54 C 0.015,2.663 -0.12,2.759 -0.271,2.827 -0.421,2.895 -0.59,2.929 -0.777,2.929 -0.943,2.929 -1.102,2.897 -1.25,2.834 -1.398,2.771 -1.529,2.682 -1.64,2.568 -1.751,2.454 -1.839,2.316 -1.903,2.155 -1.968,1.994 -2,1.813 -2,1.614 c 0,-0.225 0.038,-0.42 0.113,-0.586 0.075,-0.166 0.172,-0.305 0.289,-0.416 0.118,-0.111 0.247,-0.194 0.39,-0.249 0.143,-0.055 0.28,-0.083 0.411,-0.083 0.166,0 0.339,0.036 0.518,0.109 0.178,0.073 0.341,0.196 0.488,0.371 L 0.548,0.465 C 0.416,0.278 0.233,0.124 0,0"
             style="fill:#0897c5;fill-opacity:1;fill-rule:nonzero;stroke:none"
             id="path234"
             inkscape:connector-curvature="0" /></g><g
           id="g236"
           transform="translate(227.356,101.3418)"><path
             d="m 0,0 c -0.062,0.16 -0.15,0.297 -0.263,0.413 -0.113,0.115 -0.249,0.206 -0.406,0.273 -0.158,0.066 -0.332,0.1 -0.519,0.1 -0.185,0 -0.355,-0.034 -0.51,-0.1 C -1.854,0.619 -1.986,0.528 -2.096,0.413 -2.205,0.297 -2.291,0.159 -2.352,-0.002 -2.413,-0.164 -2.443,-0.34 -2.443,-0.529 c 0,-0.194 0.034,-0.371 0.103,-0.534 0.069,-0.164 0.162,-0.304 0.279,-0.423 0.118,-0.118 0.253,-0.211 0.407,-0.278 0.154,-0.066 0.315,-0.099 0.484,-0.099 0.169,0 0.33,0.03 0.482,0.092 0.152,0.062 0.286,0.151 0.402,0.268 0.115,0.117 0.208,0.258 0.277,0.423 0.069,0.164 0.104,0.351 0.104,0.56 C 0.095,-0.333 0.063,-0.16 0,0 M 0.444,-1.244 C 0.353,-1.461 0.227,-1.65 0.068,-1.811 -0.09,-1.973 -0.275,-2.099 -0.488,-2.191 -0.701,-2.283 -0.929,-2.329 -1.17,-2.329 c -0.244,0 -0.474,0.045 -0.688,0.136 -0.215,0.09 -0.402,0.214 -0.562,0.372 -0.16,0.158 -0.285,0.347 -0.376,0.568 -0.091,0.219 -0.137,0.461 -0.137,0.724 0,0.253 0.044,0.487 0.132,0.704 0.088,0.217 0.209,0.406 0.364,0.565 0.156,0.16 0.339,0.285 0.553,0.375 0.213,0.091 0.444,0.135 0.691,0.135 0.266,0 0.507,-0.045 0.726,-0.137 0.218,-0.092 0.405,-0.218 0.559,-0.38 0.155,-0.161 0.275,-0.351 0.362,-0.569 0.086,-0.219 0.129,-0.453 0.129,-0.703 0,-0.253 -0.046,-0.488 -0.139,-0.705"
             style="fill:#0897c5;fill-opacity:1;fill-rule:nonzero;stroke:none"
             id="path238"
             inkscape:connector-curvature="0" /></g><g
           id="g240"
           transform="translate(230.8247,99.0703)"><path
             d="M 0,0 -1.8,2.511 C -1.81,2.527 -1.83,2.559 -1.861,2.606 -1.854,2.549 -1.852,2.511 -1.852,2.492 V 0 h -0.469 v 3.465 h 0.399 L -0.146,1.001 C -0.13,0.982 -0.109,0.949 -0.085,0.902 -0.091,0.956 -0.094,0.994 -0.094,1.016 v 2.449 h 0.47 V 0 Z"
             style="fill:#0897c5;fill-opacity:1;fill-rule:nonzero;stroke:none"
             id="path242"
             inkscape:connector-curvature="0" /></g><g
           id="g244"
           transform="translate(232.9019,102.0844)"><path
             d="M 0,0 V -3.014 H -0.47 V 0 h -0.7 V 0.451 H 0.729 V 0 Z"
             style="fill:#0897c5;fill-opacity:1;fill-rule:nonzero;stroke:none"
             id="path246"
             inkscape:connector-curvature="0" /></g><g
           id="g248"
           transform="translate(234.1616,99.0703)"><path
             d="M 0,0 V 3.465 H 1.917 V 3.014 H 0.47 V 1.917 H 1.885 V 1.467 H 0.47 V 0.451 H 2.007 V 0 Z"
             style="fill:#0897c5;fill-opacity:1;fill-rule:nonzero;stroke:none"
             id="path250"
             inkscape:connector-curvature="0" /></g><g
           id="g252"
           transform="translate(239.6558,99.0703)"><path
             d="M 0,0 V 2.549 C 0,2.581 0.003,2.625 0.009,2.682 -0.013,2.641 -0.028,2.614 -0.038,2.601 L -1.114,1.134 h -0.188 l -1.086,1.429 c -0.009,0.013 -0.025,0.038 -0.047,0.076 0.006,-0.054 0.01,-0.097 0.01,-0.128 V 0 h -0.471 v 3.465 h 0.4 L -1.203,1.771 0.052,3.465 H 0.47 V 0 Z"
             style="fill:#0897c5;fill-opacity:1;fill-rule:nonzero;stroke:none"
             id="path254"
             inkscape:connector-curvature="0" /></g><g
           id="g256"
           transform="translate(242.3062,101.9316)"><path
             d="m 0,0 c -0.125,0.102 -0.298,0.153 -0.517,0.153 h -0.489 v -1.201 h 0.518 c 0.197,0 0.359,0.052 0.486,0.157 0.127,0.106 0.189,0.257 0.189,0.455 C 0.187,-0.248 0.125,-0.103 0,0 M 0.592,-0.861 C 0.536,-0.986 0.461,-1.096 0.366,-1.19 0.272,-1.286 0.163,-1.361 0.037,-1.416 -0.088,-1.472 -0.22,-1.499 -0.357,-1.499 h -0.649 v -1.362 h -0.47 v 3.465 h 1.03 c 0.172,0 0.328,-0.028 0.467,-0.083 C 0.16,0.465 0.278,0.39 0.376,0.295 0.473,0.2 0.548,0.088 0.6,-0.042 c 0.051,-0.129 0.077,-0.27 0.077,-0.422 0,-0.14 -0.029,-0.272 -0.085,-0.397"
             style="fill:#0897c5;fill-opacity:1;fill-rule:nonzero;stroke:none"
             id="path258"
             inkscape:connector-curvature="0" /></g><g
           id="g260"
           transform="translate(246.3003,101.3418)"><path
             d="m 0,0 c -0.062,0.16 -0.15,0.297 -0.263,0.413 -0.113,0.115 -0.249,0.206 -0.406,0.273 -0.158,0.066 -0.332,0.1 -0.519,0.1 -0.185,0 -0.355,-0.034 -0.51,-0.1 C -1.854,0.619 -1.986,0.528 -2.096,0.413 -2.205,0.297 -2.291,0.159 -2.352,-0.002 -2.413,-0.164 -2.443,-0.34 -2.443,-0.529 c 0,-0.194 0.034,-0.371 0.103,-0.534 0.069,-0.164 0.162,-0.304 0.279,-0.423 0.118,-0.118 0.253,-0.211 0.407,-0.278 0.154,-0.066 0.315,-0.099 0.484,-0.099 0.169,0 0.33,0.03 0.482,0.092 0.152,0.062 0.286,0.151 0.402,0.268 0.115,0.117 0.208,0.258 0.277,0.423 0.069,0.164 0.104,0.351 0.104,0.56 C 0.095,-0.333 0.063,-0.16 0,0 M 0.444,-1.244 C 0.353,-1.461 0.227,-1.65 0.068,-1.811 -0.09,-1.973 -0.275,-2.099 -0.488,-2.191 -0.701,-2.283 -0.929,-2.329 -1.17,-2.329 c -0.244,0 -0.474,0.045 -0.688,0.136 -0.215,0.09 -0.402,0.214 -0.562,0.372 -0.16,0.158 -0.285,0.347 -0.376,0.568 -0.091,0.219 -0.137,0.461 -0.137,0.724 0,0.253 0.044,0.487 0.132,0.704 0.088,0.217 0.209,0.406 0.364,0.565 0.156,0.16 0.339,0.285 0.553,0.375 0.213,0.091 0.444,0.135 0.691,0.135 0.266,0 0.508,-0.045 0.726,-0.137 0.218,-0.092 0.405,-0.218 0.559,-0.38 0.155,-0.161 0.275,-0.351 0.362,-0.569 0.086,-0.219 0.129,-0.453 0.129,-0.703 0,-0.253 -0.046,-0.488 -0.139,-0.705"
             style="fill:#0897c5;fill-opacity:1;fill-rule:nonzero;stroke:none"
             id="path262"
             inkscape:connector-curvature="0" /></g><g
           id="g264"
           transform="translate(249.0903,101.7182)"><path
             d="M 0,0 C -0.027,0.064 -0.067,0.124 -0.122,0.177 -0.178,0.23 -0.245,0.275 -0.327,0.312 -0.408,0.348 -0.506,0.366 -0.618,0.366 h -0.555 v -1.187 h 0.545 c 0.213,0 0.378,0.059 0.494,0.177 0.115,0.119 0.174,0.271 0.174,0.457 C 0.04,-0.127 0.026,-0.065 0,0 m 0.214,-2.648 -1.387,1.619 v -1.619 h -0.47 v 3.465 h 1.109 c 0.16,0 0.305,-0.026 0.435,-0.081 C 0.031,0.683 0.143,0.609 0.237,0.516 0.331,0.422 0.403,0.314 0.453,0.19 0.503,0.067 0.528,-0.064 0.528,-0.204 0.528,-0.343 0.502,-0.472 0.448,-0.593 0.396,-0.713 0.323,-0.818 0.232,-0.908 0.142,-0.999 0.037,-1.069 -0.08,-1.12 -0.197,-1.17 -0.32,-1.195 -0.449,-1.195 l 1.264,-1.453 z"
             style="fill:#0897c5;fill-opacity:1;fill-rule:nonzero;stroke:none"
             id="path266"
             inkscape:connector-curvature="0" /></g><g
           id="g268"
           transform="translate(251.6118,101.6098)"><path
             d="M 0,0 C -0.007,0.019 -0.017,0.051 -0.028,0.095 -0.038,0.051 -0.046,0.021 -0.052,0.004 L -0.409,-0.968 H 0.356 Z M 0.935,-2.54 0.521,-1.419 H -0.574 L -0.987,-2.54 H -1.485 L -0.17,0.926 H 0.131 L 1.456,-2.54 Z"
             style="fill:#0897c5;fill-opacity:1;fill-rule:nonzero;stroke:none"
             id="path270"
             inkscape:connector-curvature="0" /></g><g
           id="g272"
           transform="translate(255.1802,101.7182)"><path
             d="M 0,0 C -0.026,0.064 -0.067,0.124 -0.121,0.177 -0.177,0.23 -0.245,0.275 -0.326,0.312 -0.407,0.348 -0.505,0.366 -0.618,0.366 h -0.554 v -1.187 h 0.545 c 0.213,0 0.378,0.059 0.493,0.177 0.116,0.119 0.174,0.271 0.174,0.457 C 0.04,-0.127 0.027,-0.065 0,0 m 0.215,-2.648 -1.387,1.619 v -1.619 h -0.47 v 3.465 h 1.109 c 0.16,0 0.304,-0.026 0.435,-0.081 C 0.032,0.683 0.144,0.609 0.238,0.516 0.332,0.422 0.404,0.314 0.454,0.19 0.504,0.067 0.529,-0.064 0.529,-0.204 0.529,-0.343 0.503,-0.472 0.449,-0.593 0.396,-0.713 0.324,-0.818 0.233,-0.908 0.143,-0.999 0.038,-1.069 -0.079,-1.12 -0.197,-1.17 -0.319,-1.195 -0.448,-1.195 l 1.263,-1.453 z"
             style="fill:#0897c5;fill-opacity:1;fill-rule:nonzero;stroke:none"
             id="path274"
             inkscape:connector-curvature="0" /></g><g
           id="g276"
           transform="translate(257.5659,100.6792)"><path
             d="M 0,0 V -1.609 H -0.471 V 0 l -1.178,1.856 h 0.545 L -0.277,0.56 c 0.009,-0.016 0.026,-0.049 0.051,-0.1 0.025,0.051 0.044,0.086 0.057,0.105 l 0.827,1.291 h 0.535 z"
             style="fill:#0897c5;fill-opacity:1;fill-rule:nonzero;stroke:none"
             id="path278"
             inkscape:connector-curvature="0" /></g><g
           id="g280"
           transform="translate(261.4897,101.6098)"><path
             d="M 0,0 C -0.007,0.019 -0.016,0.051 -0.027,0.095 -0.037,0.051 -0.045,0.021 -0.052,0.004 L -0.408,-0.968 H 0.357 Z M 0.936,-2.54 0.522,-1.419 H -0.573 L -0.987,-2.54 h -0.498 l 1.316,3.466 H 0.132 L 1.457,-2.54 Z"
             style="fill:#0897c5;fill-opacity:1;fill-rule:nonzero;stroke:none"
             id="path282"
             inkscape:connector-curvature="0" /></g><g
           id="g284"
           transform="translate(265.7388,99.0703)"><path
             d="M 0,0 -1.801,2.511 C -1.81,2.527 -1.83,2.559 -1.861,2.606 -1.855,2.549 -1.852,2.511 -1.852,2.492 V 0 h -0.47 v 3.465 h 0.399 l 1.777,-2.464 c 0.016,-0.019 0.036,-0.052 0.061,-0.099 -0.006,0.054 -0.01,0.092 -0.01,0.114 v 2.449 h 0.47 L 0.375,0 Z"
             style="fill:#0897c5;fill-opacity:1;fill-rule:nonzero;stroke:none"
             id="path286"
             inkscape:connector-curvature="0" /></g><g
           id="g288"
           transform="translate(268.9409,101.3081)"><path
             d="M 0,0 C -0.064,0.157 -0.155,0.294 -0.272,0.414 -0.39,0.532 -0.531,0.626 -0.698,0.696 -0.864,0.765 -1.05,0.8 -1.257,0.8 h -0.395 v -2.611 h 0.306 c 0.254,0 0.471,0.038 0.654,0.114 0.18,0.076 0.33,0.176 0.448,0.299 0.117,0.124 0.203,0.264 0.258,0.42 0.055,0.157 0.083,0.316 0.083,0.478 C 0.097,-0.323 0.064,-0.156 0,0 M 0.458,-1.175 C 0.373,-1.387 0.251,-1.571 0.09,-1.728 -0.072,-1.884 -0.269,-2.009 -0.5,-2.101 -0.732,-2.192 -0.995,-2.238 -1.29,-2.238 h -0.832 v 3.466 h 0.874 c 0.292,0 0.552,-0.046 0.78,-0.136 0.23,-0.09 0.421,-0.214 0.576,-0.37 0.156,-0.157 0.273,-0.34 0.355,-0.549 0.082,-0.208 0.122,-0.431 0.122,-0.669 0,-0.24 -0.042,-0.466 -0.127,-0.679"
             style="fill:#0897c5;fill-opacity:1;fill-rule:nonzero;stroke:none"
             id="path290"
             inkscape:connector-curvature="0" /></g><g
           id="g292"
           transform="translate(273.6226,101.3081)"><path
             d="M 0,0 C -0.065,0.157 -0.156,0.294 -0.273,0.414 -0.391,0.532 -0.532,0.626 -0.698,0.696 -0.865,0.765 -1.051,0.8 -1.258,0.8 h -0.395 v -2.611 h 0.306 c 0.254,0 0.472,0.038 0.654,0.114 0.18,0.076 0.331,0.176 0.448,0.299 0.118,0.124 0.203,0.264 0.259,0.42 0.054,0.157 0.082,0.316 0.082,0.478 C 0.096,-0.323 0.063,-0.156 0,0 M 0.457,-1.175 C 0.373,-1.387 0.25,-1.571 0.089,-1.728 -0.073,-1.884 -0.27,-2.009 -0.501,-2.101 -0.732,-2.192 -0.996,-2.238 -1.291,-2.238 h -0.832 v 3.466 h 0.875 c 0.291,0 0.551,-0.046 0.78,-0.136 0.229,-0.09 0.42,-0.214 0.575,-0.37 0.156,-0.157 0.274,-0.34 0.356,-0.549 0.081,-0.208 0.121,-0.431 0.121,-0.669 0,-0.24 -0.042,-0.466 -0.127,-0.679"
             style="fill:#0897c5;fill-opacity:1;fill-rule:nonzero;stroke:none"
             id="path294"
             inkscape:connector-curvature="0" /></g><path
           d="m 274.77,102.536 h 0.471 v -3.465 h -0.471 z"
           style="fill:#0897c5;fill-opacity:1;fill-rule:nonzero;stroke:none"
           id="path296"
           inkscape:connector-curvature="0" /><g
           id="g298"
           transform="translate(278.9839,99.9775)"><path
             d="m 0,0 c -0.086,-0.199 -0.201,-0.369 -0.345,-0.512 -0.144,-0.143 -0.311,-0.254 -0.501,-0.333 -0.189,-0.08 -0.387,-0.119 -0.594,-0.119 -0.216,0 -0.428,0.042 -0.637,0.128 -0.208,0.086 -0.394,0.206 -0.557,0.363 -0.163,0.157 -0.295,0.345 -0.394,0.565 -0.101,0.22 -0.152,0.464 -0.152,0.733 0,0.269 0.047,0.514 0.14,0.734 0.092,0.22 0.218,0.408 0.378,0.565 0.16,0.156 0.345,0.277 0.557,0.363 0.21,0.085 0.434,0.128 0.669,0.128 0.28,0 0.518,-0.042 0.717,-0.126 0.199,-0.084 0.382,-0.198 0.548,-0.344 L -0.458,1.793 C -0.608,1.917 -0.76,2.007 -0.914,2.064 -1.067,2.121 -1.244,2.15 -1.444,2.15 -1.617,2.15 -1.779,2.118 -1.931,2.055 -2.083,1.991 -2.216,1.902 -2.328,1.787 -2.441,1.671 -2.529,1.531 -2.594,1.366 -2.658,1.202 -2.69,1.02 -2.69,0.82 c 0,-0.177 0.033,-0.344 0.098,-0.503 0.066,-0.158 0.157,-0.298 0.273,-0.42 0.116,-0.122 0.25,-0.218 0.402,-0.29 0.152,-0.071 0.315,-0.106 0.491,-0.106 0.121,0 0.238,0.017 0.348,0.05 0.109,0.033 0.208,0.08 0.296,0.142 0.088,0.062 0.163,0.136 0.225,0.221 0.063,0.085 0.11,0.18 0.141,0.285 H -1.45 v 0.45 H 0.129 C 0.129,0.415 0.087,0.198 0,0"
             style="fill:#0897c5;fill-opacity:1;fill-rule:nonzero;stroke:none"
             id="path300"
             inkscape:connector-curvature="0" /></g><path
           d="m 279.63,102.536 h 0.47 v -3.465 h -0.47 z"
           style="fill:#0897c5;fill-opacity:1;fill-rule:nonzero;stroke:none"
           id="path302"
           inkscape:connector-curvature="0" /><g
           id="g304"
           transform="translate(281.8013,102.0844)"><path
             d="M 0,0 V -3.014 H -0.47 V 0 h -0.7 V 0.451 H 0.729 V 0 Z"
             style="fill:#0897c5;fill-opacity:1;fill-rule:nonzero;stroke:none"
             id="path306"
             inkscape:connector-curvature="0" /></g><g
           id="g308"
           transform="translate(283.9351,101.6098)"><path
             d="M 0,0 C -0.006,0.019 -0.016,0.051 -0.027,0.095 -0.037,0.051 -0.045,0.021 -0.051,0.004 L -0.408,-0.968 H 0.357 Z M 0.936,-2.54 0.522,-1.419 H -0.573 L -0.987,-2.54 h -0.497 l 1.315,3.466 H 0.132 L 1.457,-2.54 Z"
             style="fill:#0897c5;fill-opacity:1;fill-rule:nonzero;stroke:none"
             id="path310"
             inkscape:connector-curvature="0" /></g><g
           id="g312"
           transform="translate(285.8628,99.0703)"><path
             d="M 0,0 V 3.465 H 0.47 V 0.451 H 1.771 V 0 Z"
             style="fill:#0897c5;fill-opacity:1;fill-rule:nonzero;stroke:none"
             id="path314"
             inkscape:connector-curvature="0" /></g><g
           id="g316"
           transform="translate(291.6382,99.0703)"><path
             d="M 0,0 V 1.49 H -1.645 V 0 h -0.47 v 3.465 h 0.47 V 1.941 H 0 V 3.465 H 0.471 V 0 Z"
             style="fill:#0897c5;fill-opacity:1;fill-rule:nonzero;stroke:none"
             id="path318"
             inkscape:connector-curvature="0" /></g><path
           d="m 292.813,102.536 h 0.471 v -3.465 h -0.471 z"
           style="fill:#0897c5;fill-opacity:1;fill-rule:nonzero;stroke:none"
           id="path320"
           inkscape:connector-curvature="0" /><g
           id="g322"
           transform="translate(295.8208,99.5732)"><path
             d="m 0,0 c -0.057,-0.12 -0.132,-0.222 -0.228,-0.306 -0.095,-0.084 -0.207,-0.147 -0.334,-0.19 -0.126,-0.043 -0.261,-0.064 -0.406,-0.064 -0.176,0 -0.347,0.025 -0.514,0.076 -0.168,0.05 -0.331,0.142 -0.492,0.275 l 0.268,0.366 c 0.047,-0.041 0.1,-0.078 0.158,-0.11 0.058,-0.031 0.118,-0.058 0.181,-0.08 0.062,-0.023 0.126,-0.039 0.19,-0.05 0.065,-0.011 0.126,-0.017 0.186,-0.017 0.176,0 0.317,0.04 0.425,0.119 0.108,0.079 0.163,0.201 0.163,0.366 0,0.073 -0.016,0.138 -0.047,0.197 -0.032,0.058 -0.073,0.112 -0.125,0.161 -0.052,0.049 -0.113,0.094 -0.184,0.135 -0.07,0.041 -0.143,0.081 -0.218,0.119 -0.123,0.063 -0.243,0.127 -0.36,0.19 -0.117,0.063 -0.223,0.137 -0.316,0.221 -0.095,0.083 -0.17,0.183 -0.226,0.299 -0.058,0.115 -0.085,0.255 -0.085,0.42 0,0.126 0.022,0.244 0.068,0.353 0.044,0.11 0.11,0.205 0.195,0.285 0.085,0.081 0.189,0.144 0.31,0.188 0.122,0.044 0.26,0.066 0.414,0.066 0.172,0 0.336,-0.025 0.491,-0.076 0.155,-0.05 0.3,-0.123 0.435,-0.218 l -0.254,-0.39 c -0.106,0.08 -0.21,0.136 -0.31,0.169 -0.101,0.034 -0.223,0.05 -0.367,0.05 -0.135,0 -0.25,-0.033 -0.347,-0.099 -0.098,-0.067 -0.147,-0.167 -0.147,-0.3 0,-0.095 0.021,-0.176 0.06,-0.242 0.039,-0.066 0.093,-0.126 0.16,-0.178 0.068,-0.052 0.147,-0.101 0.237,-0.147 0.092,-0.046 0.191,-0.096 0.298,-0.15 0.097,-0.047 0.194,-0.1 0.289,-0.159 0.097,-0.058 0.183,-0.128 0.26,-0.208 C -0.095,0.99 -0.032,0.896 0.015,0.791 0.062,0.684 0.085,0.559 0.085,0.413 0.085,0.258 0.057,0.12 0,0"
             style="fill:#0897c5;fill-opacity:1;fill-rule:nonzero;stroke:none"
             id="path324"
             inkscape:connector-curvature="0" /></g><g
           id="g326"
           transform="translate(297.3618,102.0844)"><path
             d="M 0,0 V -3.014 H -0.47 V 0 H -1.169 V 0.451 H 0.729 V 0 Z"
             style="fill:#0897c5;fill-opacity:1;fill-rule:nonzero;stroke:none"
             id="path328"
             inkscape:connector-curvature="0" /></g><g
           id="g330"
           transform="translate(301.1792,101.3418)"><path
             d="m 0,0 c -0.062,0.16 -0.15,0.297 -0.263,0.413 -0.114,0.115 -0.249,0.206 -0.407,0.273 -0.158,0.066 -0.331,0.1 -0.519,0.1 -0.185,0 -0.355,-0.034 -0.51,-0.1 -0.155,-0.067 -0.288,-0.158 -0.397,-0.273 -0.11,-0.116 -0.195,-0.254 -0.257,-0.415 -0.06,-0.162 -0.091,-0.338 -0.091,-0.527 0,-0.194 0.034,-0.371 0.103,-0.534 0.07,-0.164 0.162,-0.304 0.279,-0.423 0.119,-0.118 0.254,-0.211 0.408,-0.278 0.153,-0.066 0.315,-0.099 0.484,-0.099 0.169,0 0.329,0.03 0.482,0.092 0.151,0.062 0.285,0.151 0.401,0.268 0.116,0.117 0.209,0.258 0.277,0.423 0.07,0.164 0.104,0.351 0.104,0.56 C 0.094,-0.333 0.062,-0.16 0,0 M 0.443,-1.244 C 0.352,-1.461 0.227,-1.65 0.067,-1.811 -0.091,-1.973 -0.276,-2.099 -0.489,-2.191 -0.702,-2.283 -0.93,-2.329 -1.17,-2.329 c -0.245,0 -0.475,0.045 -0.689,0.136 -0.214,0.09 -0.402,0.214 -0.562,0.372 -0.159,0.158 -0.285,0.347 -0.376,0.568 -0.091,0.219 -0.136,0.461 -0.136,0.724 0,0.253 0.044,0.487 0.131,0.704 0.088,0.217 0.21,0.406 0.365,0.565 0.155,0.16 0.338,0.285 0.552,0.375 0.213,0.091 0.444,0.135 0.692,0.135 0.265,0 0.507,-0.045 0.725,-0.137 0.218,-0.092 0.405,-0.218 0.56,-0.38 0.155,-0.161 0.275,-0.351 0.361,-0.569 0.086,-0.219 0.13,-0.453 0.13,-0.703 0,-0.253 -0.047,-0.488 -0.14,-0.705"
             style="fill:#0897c5;fill-opacity:1;fill-rule:nonzero;stroke:none"
             id="path332"
             inkscape:connector-curvature="0" /></g><g
           id="g334"
           transform="translate(303.9683,101.7182)"><path
             d="M 0,0 C -0.026,0.064 -0.067,0.124 -0.122,0.177 -0.177,0.23 -0.245,0.275 -0.326,0.312 -0.408,0.348 -0.505,0.366 -0.618,0.366 h -0.555 v -1.187 h 0.546 c 0.212,0 0.377,0.059 0.493,0.177 0.115,0.119 0.174,0.271 0.174,0.457 C 0.04,-0.127 0.026,-0.065 0,0 m 0.214,-2.648 -1.387,1.619 v -1.619 h -0.47 v 3.465 h 1.11 c 0.16,0 0.304,-0.026 0.434,-0.081 C 0.031,0.683 0.143,0.609 0.237,0.516 0.331,0.422 0.403,0.314 0.453,0.19 0.504,0.067 0.529,-0.064 0.529,-0.204 0.529,-0.343 0.502,-0.472 0.449,-0.593 0.396,-0.713 0.323,-0.818 0.232,-0.908 0.142,-0.999 0.037,-1.069 -0.08,-1.12 -0.197,-1.17 -0.32,-1.195 -0.449,-1.195 l 1.264,-1.453 z"
             style="fill:#0897c5;fill-opacity:1;fill-rule:nonzero;stroke:none"
             id="path336"
             inkscape:connector-curvature="0" /></g><g
           id="g338"
           transform="translate(306.3481,100.6792)"><path
             d="M 0,0 V -1.609 H -0.47 V 0 l -1.179,1.856 h 0.545 L -0.277,0.56 c 0.009,-0.016 0.026,-0.049 0.052,-0.1 0.025,0.051 0.043,0.086 0.056,0.105 l 0.827,1.291 h 0.536 z"
             style="fill:#0897c5;fill-opacity:1;fill-rule:nonzero;stroke:none"
             id="path340"
             inkscape:connector-curvature="0" /></g><path
           d="m 276.076,112.768 h -54.848 v 21.372 h 54.848 z"
           style="fill:#1ca2dc;fill-opacity:1;fill-rule:nonzero;stroke:none"
           id="path342"
           inkscape:connector-curvature="0" /><path
           d="m 287.275,129.278 h -5.467 v 5.466 h 5.467 z"
           style="fill:#0897c5;fill-opacity:1;fill-rule:nonzero;stroke:none"
           id="path344"
           inkscape:connector-curvature="0" /><path
           d="m 296.153,120.755 h -5.467 v 5.466 h 5.467 z"
           style="fill:#e22526;fill-opacity:1;fill-rule:nonzero;stroke:none"
           id="path346"
           inkscape:connector-curvature="0" /><path
           d="m 290.827,137.259 h -5.467 v 5.466 h 5.467 z"
           style="fill:#2abbed;fill-opacity:1;fill-rule:nonzero;stroke:none"
           id="path348"
           inkscape:connector-curvature="0" /><path
           d="m 263.958,137.832 h -5.467 v 5.466 h 5.467 z"
           style="fill:#80ccea;fill-opacity:1;fill-rule:nonzero;stroke:none"
           id="path350"
           inkscape:connector-curvature="0" /><path
           d="m 277.768,140.137 h -5.466 v 5.466 h 5.466 z"
           style="fill:#078aaa;fill-opacity:1;fill-rule:nonzero;stroke:none"
           id="path352"
           inkscape:connector-curvature="0" /><path
           d="m 287.459,117.05 h -5.466 v 5.467 h 5.466 z"
           style="fill:#b7e0ee;fill-opacity:1;fill-rule:nonzero;stroke:none"
           id="path354"
           inkscape:connector-curvature="0" /><path
           d="m 250.693,143.672 h -5.467 v 5.466 h 5.467 z"
           style="fill:#1ca2dc;fill-opacity:1;fill-rule:nonzero;stroke:none"
           id="path356"
           inkscape:connector-curvature="0" /><g
           id="g358"
           transform="translate(235.3003,116.0385)"><path
             d="m 0,0 c -1.012,-0.529 -2.175,-0.794 -3.491,-0.794 -0.91,0 -1.799,0.18 -2.667,0.54 -0.869,0.359 -1.647,0.868 -2.331,1.526 -0.686,0.658 -1.24,1.463 -1.659,2.413 -0.421,0.95 -0.632,2.015 -0.632,3.196 0,1.072 0.183,2.077 0.55,3.014 0.366,0.936 0.876,1.75 1.527,2.442 0.651,0.692 1.428,1.235 2.331,1.629 0.902,0.393 1.89,0.59 2.962,0.59 1.344,0 2.446,-0.21 3.308,-0.631 0.862,-0.421 1.591,-0.984 2.189,-1.69 L 0.58,10.892 c -0.516,0.529 -1.1,0.94 -1.751,1.232 -0.651,0.291 -1.384,0.437 -2.198,0.437 -0.72,0 -1.402,-0.136 -2.046,-0.407 -0.646,-0.272 -1.208,-0.652 -1.69,-1.14 -0.482,-0.489 -0.862,-1.079 -1.14,-1.771 -0.278,-0.692 -0.417,-1.466 -0.417,-2.321 0,-0.964 0.162,-1.802 0.488,-2.514 0.325,-0.713 0.743,-1.307 1.252,-1.782 0.509,-0.475 1.072,-0.831 1.69,-1.068 0.618,-0.238 1.211,-0.357 1.781,-0.357 0.72,0 1.466,0.156 2.24,0.468 0.774,0.312 1.479,0.842 2.117,1.588 L 2.372,1.995 C 1.802,1.194 1.011,0.529 0,0"
             style="fill:#ffffff;fill-opacity:1;fill-rule:nonzero;stroke:none"
             id="path360"
             inkscape:connector-curvature="0" /></g><g
           id="g362"
           transform="translate(239.0122,122.268)"><path
             d="m 0,0 3.763,4.76 c 0.253,0.316 0.411,0.585 0.474,0.807 0.064,0.221 0.095,0.411 0.095,0.569 0,0.309 -0.056,0.562 -0.167,0.76 C 4.054,7.094 3.917,7.25 3.754,7.365 3.592,7.479 3.417,7.561 3.23,7.608 3.044,7.656 2.879,7.68 2.735,7.68 2.45,7.68 2.204,7.634 1.997,7.543 1.79,7.452 1.622,7.329 1.491,7.175 1.359,7.021 1.265,6.841 1.205,6.635 1.146,6.429 1.115,6.215 1.115,5.994 h -1.138 c 0,0.459 0.07,0.864 0.212,1.217 C 0.332,7.562 0.528,7.857 0.777,8.095 1.026,8.332 1.319,8.51 1.655,8.629 1.992,8.748 2.354,8.807 2.741,8.807 3.09,8.807 3.43,8.757 3.763,8.659 4.095,8.56 4.392,8.404 4.652,8.19 4.914,7.976 5.125,7.701 5.288,7.365 5.45,7.028 5.531,6.619 5.531,6.136 5.531,5.835 5.476,5.52 5.364,5.187 5.254,4.854 5.061,4.518 4.783,4.178 L 2.303,1.128 H 5.757 V 0 Z"
             style="fill:#ffffff;fill-opacity:1;fill-rule:nonzero;stroke:none"
             id="path364"
             inkscape:connector-curvature="0" /></g><g
           id="g366"
           transform="translate(256.105,125.0879)"><path
             d="M 0,0 C -0.279,0.672 -0.672,1.262 -1.181,1.771 -1.69,2.28 -2.305,2.684 -3.023,2.982 -3.743,3.281 -4.551,3.431 -5.446,3.431 h -1.71 V -7.767 h 1.323 c 1.1,0 2.042,0.163 2.83,0.489 0.786,0.325 1.435,0.753 1.943,1.282 0.51,0.53 0.883,1.13 1.121,1.802 0.237,0.672 0.356,1.354 0.356,2.046 0,0.76 -0.14,1.476 -0.417,2.148 m 1.984,-5.039 c -0.366,-0.909 -0.898,-1.7 -1.597,-2.372 -0.699,-0.672 -1.551,-1.204 -2.556,-1.598 -1.004,-0.393 -2.144,-0.59 -3.42,-0.59 H -9.192 V 5.263 h 3.787 c 1.261,0 2.388,-0.194 3.379,-0.58 C -1.035,4.296 -0.204,3.767 0.468,3.095 1.14,2.423 1.651,1.639 2.005,0.743 c 0.352,-0.896 0.529,-1.852 0.529,-2.87 0,-1.032 -0.182,-2.003 -0.55,-2.912"
             style="fill:#ffffff;fill-opacity:1;fill-rule:nonzero;stroke:none"
             id="path368"
             inkscape:connector-curvature="0" /></g><g
           id="g370"
           transform="translate(270.2437,115.4887)"><path
             d="M 0,0 V 6.393 H -7.125 V 0 h -2.036 v 14.862 h 2.036 V 8.327 H 0 v 6.535 H 2.036 V 0 Z"
             style="fill:#ffffff;fill-opacity:1;fill-rule:nonzero;stroke:none"
             id="path372"
             inkscape:connector-curvature="0" /></g></g></g></g></svg>